# xmcd CD database file
# Copyright (C) 1997 Ti Kan
# 
# Track frame offsets:
#     150
#     14990
#     30295
#     47627
#     72392
#     85332
#     99890
#     108960
#     126815
#     139355
#     156590
# 
# Disc length: 2292 seconds
# 
# Revision: 1
# Processed by: cddbd v1.4b41PL1 Copyright (c) Steve Scherf et al.
# Submitted via: DiscPlay 4.0.4
# 
DISCID=9508f20b
DTITLE=Asleep At The Wheel - Asleep At The Wheel
DYEAR=1900
DGENRE=
TTITLE0=Chooo Choo Ch'Boogie
TTITLE1=You And Me Instead
TTITLE2=Jumpin' At The Woodside
TTITLE3=Last Letter
TTITLE4=Don't Ask Me Why (I'm Going To Texas)
TTITLE5=The Kind Of Love I Can't Forget
TTITLE6=I'm Gonna Be A Wheel Someday
TTITLE7=Our Names Aren't Mentioned (Together Anymore)
TTITLE8=Miss Molly
TTITLE9=Blood-Shot Eyes
TTITLE10=Dead Man
EXTD=
EXTT0=
EXTT1=
EXTT2=
EXTT3=
EXTT4=
EXTT5=
EXTT6=
EXTT7=
EXTT8=
EXTT9=
EXTT10=
PLAYORDER=
